<svg xmlns="http://www.w3.org/2000/svg" width="200" height="200" viewBox="0 0 200 200">
    <defs>
        <filter id="wq1omyhkca">
            <feColorMatrix in="SourceGraphic" values="0 0 0 0 1.000000 0 0 0 0 0.313725 0 0 0 0 0.000000 0 0 0 1.000000 0"/>
        </filter>
    </defs>
    <g fill="none" fill-rule="evenodd">
        <g>
            <g filter="url(#wq1omyhkca)" transform="translate(-151 -2912) translate(151 2912)">
                <g stroke="#FF5000">
                    <g>
                        <g>
                            <path d="M30.808 99.343l-1.759-14.407L0 56.76V9.89C0 2.631 3.964 0 7.908 0c3.944 0 7.496 2.927 7.496 9.89v20.833" transform="translate(27.83 27) translate(.17 46)"/>
                            <path d="M61.308 99.343V84.289c0-10.925-2.159-18.631-6.476-23.116-4.774-5.432-17.05-11.765-17.05-11.765L20.278 32.905c-3.764-3.356-8.636-2.426-10.687 0-2.052 2.426-2.428 7.185 0 9.813 1.618 1.751 8.69 8.536 21.217 20.353" transform="translate(27.83 27) translate(.17 46)"/>
                        </g>
                        <g>
                            <path d="M30.808 99.343l-1.759-14.407L0 56.76V9.89C0 2.631 3.964 0 7.908 0c3.944 0 7.496 2.927 7.496 9.89v20.833" transform="translate(27.83 27) translate(.17 46) matrix(-1 0 0 1 144 0)"/>
                            <path d="M61.308 99.343V84.289c0-10.925-2.159-18.631-6.476-23.116-4.774-5.432-17.05-11.765-17.05-11.765L20.278 32.905c-3.764-3.356-8.636-2.426-10.687 0-2.052 2.426-2.428 7.185 0 9.813 1.618 1.751 8.69 8.536 21.217 20.353" transform="translate(27.83 27) translate(.17 46) matrix(-1 0 0 1 144 0)"/>
                        </g>
                    </g>
                    <g transform="translate(27.83 27) translate(31.17)">
                        <path d="M71.397 33.436c-.703-2.61-1.737-5.083-3.056-7.372l6.884-9.528-3.753-3.754-5.007-5.007-9.53 6.884c-2.288-1.319-4.761-2.353-7.37-3.056L47.694 0h-12.39l-1.87 11.603c-2.609.703-5.082 1.737-7.37 3.056l-9.53-6.884-4.38 4.38-4.38 4.38 6.884 9.53c-1.319 2.288-2.353 4.761-3.056 7.37L0 35.306v12.39l11.603 1.87c.703 2.609 1.737 5.082 3.056 7.37l-6.884 9.53 4.38 4.38 4.38 4.38 9.53-6.884c2.288 1.319 4.761 2.353 7.37 3.056L35.306 83h12.39l1.87-11.603c2.609-.703 5.082-1.737 7.37-3.056l9.53 6.884 3.753-3.753 5.007-5.007-6.884-9.53c1.319-2.288 2.353-4.761 3.056-7.37L83 47.694v-12.39l-11.603-1.87z"/>
                        <circle cx="42.33" cy="41.5" r="15.77"/>
                    </g>
                </g>
            </g>
        </g>
    </g>
</svg>
