<svg xmlns="http://www.w3.org/2000/svg" width="200" height="200" viewBox="0 0 200 200">
    <defs>
        <filter id="yw10rzppma">
            <feColorMatrix in="SourceGraphic" values="0 0 0 0 1.000000 0 0 0 0 0.313725 0 0 0 0 0.000000 0 0 0 1.000000 0"/>
        </filter>
        <filter id="2dhl9i3qub">
            <feColorMatrix in="SourceGraphic" values="0 0 0 0 0.847000 0 0 0 0 0.847000 0 0 0 0 0.847000 0 0 0 1.000000 0"/>
        </filter>
    </defs>
    <g fill="none" fill-rule="evenodd">
        <g>
            <g filter="url(#yw10rzppma)" transform="translate(-1088 -2912) translate(1088 2912)">
                <g>
                    <g stroke="#000">
                        <path d="M0 64L10.803 20.984 83 20.984 72.917 64z" transform="translate(9 47) translate(98 55)"/>
                        <path d="M73.544 20.886L73.544 5.63 23.78 5.63 17.447 0 0 0.252 0 64" transform="translate(9 47) translate(98 55)"/>
                    </g>
                    <g filter="url(#2dhl9i3qub)" transform="translate(9 47)">
                        <g>
                            <path stroke="#1D1D1B" d="M155.073 51.119l.027-.113c.854-3.75 1.314-7.267 1.314-10.376 0-22.44-18.22-40.63-40.693-40.63-17.092 0-31.723 10.52-37.75 25.43-4.845-3.231-10.668-5.116-16.932-5.116-15.124 0-27.678 10.985-30.096 25.397l-.423-.003C13.664 45.708 0 59.351 0 76.18c0 15.62 11.77 28.495 26.938 30.265l3.582.207"/>
                            <path stroke="#000" d="M29.852 106.682L86.441 106.682"/>
                        </g>
                    </g>
                </g>
            </g>
        </g>
    </g>
</svg>
