<svg xmlns="http://www.w3.org/2000/svg" width="200" height="200" viewBox="0 0 200 200">
    <defs>
        <filter id="evzmlcjkxa">
            <feColorMatrix in="SourceGraphic" values="0 0 0 0 1.000000 0 0 0 0 0.313725 0 0 0 0 0.000000 0 0 0 1.000000 0"/>
        </filter>
    </defs>
    <g fill="none" fill-rule="evenodd">
        <g>
            <g filter="url(#evzmlcjkxa)" transform="translate(-620 -3410) translate(620 3410)">
                <g stroke="#FF5000" transform="translate(34 33)">
                    <path d="M66.076 22.168c14.573 0 25.578 3.261 32.705 9.783 1.23 7.396 0 12.993 0 12.993-6.612 1.003-12.864.121-17.648-2.679l-2.36-8.502c-3.372-1.803-7.553-2.705-12.544-2.705h-.307c-4.99 0-9.172.902-12.543 2.705l-2.36 8.502c-4.784 2.8-11.037 3.682-17.649 2.679 0 0-1.23-5.597 0-12.993 7.127-6.522 18.132-9.783 32.706-9.783z"/>
                    <path d="M.579 69.107L18.943 0 113.208 0 131.572 69.107 131.572 105.802.579 105.802zM131.572 69.023L.579 69.023M65.5 105.5L65.572 121.924M14.686 122.427L117.465 122.427M14.686 133.511L117.465 133.511"/>
                    <circle cx="17.709" cy="86.656" r="5.038"/>
                    <ellipse cx="33.327" cy="86.656" rx="4.534" ry="5.038"/>
                    <circle cx="48.946" cy="86.656" r="5.038"/>
                </g>
            </g>
        </g>
    </g>
</svg>
