<svg xmlns="http://www.w3.org/2000/svg" width="200" height="200" viewBox="0 0 200 200">
    <defs>
        <filter id="7a1midivha">
            <feColorMatrix in="SourceGraphic" values="0 0 0 0 1.000000 0 0 0 0 0.313725 0 0 0 0 0.000000 0 0 0 1.000000 0"/>
        </filter>
        <filter id="xdy7l7e9vb">
            <feColorMatrix in="SourceGraphic" values="0 0 0 0 1.000000 0 0 0 0 0.313725 0 0 0 0 0.000000 0 0 0 1.000000 0"/>
        </filter>
    </defs>
    <g fill="none" fill-rule="evenodd">
        <g>
            <g filter="url(#7a1midivha)" transform="translate(-151 -3410) translate(151 3410)">
                <g stroke="#FF5000" filter="url(#xdy7l7e9vb)" transform="translate(40 28)">
                    <path d="M29.651 143L55.762 74"/>
                    <circle cx="60" cy="60" r="14.5"/>
                    <path d="M76.686 84.895c1.629-1.091 3.145-2.338 4.527-3.719C86.643 75.751 90 68.256 90 59.978 90 43.422 76.569 30 60 30c-16.569 0-30 13.422-30 29.978 0 8.278 3.358 15.773 8.787 21.198 1.382 1.381 2.898 2.628 4.527 3.72M47 97L73 97M39.5 117L80.5 117"/>
                    <path d="M64 143L90.111 74" transform="matrix(-1 0 0 1 154.11 0)"/>
                    <path d="M85.029 97c2.443-1.63 4.718-3.493 6.79-5.556C99.964 83.34 105 72.146 105 59.78 105 35.049 84.853 15 60 15S15 35.049 15 59.78c0 12.366 5.037 23.56 13.18 31.664 2.073 2.063 4.348 3.925 6.791 5.556"/>
                    <path d="M93.372 109c3.258-2.167 6.29-4.643 9.054-7.385C113.284 90.843 120 75.962 120 59.525 120 26.65 93.137 0 60 0S0 26.65 0 59.524c0 16.438 6.716 31.319 17.574 42.09 2.764 2.743 5.796 5.219 9.054 7.386"/>
                </g>
            </g>
        </g>
    </g>
</svg>
